<svg width="36" height="36" viewBox="0 0 36 36" fill="none" xmlns="http://www.w3.org/2000/svg">
<path d="M15.5 1.44338C17.047 0.550211 18.953 0.550212 20.5 1.44338L31.0885 7.55662C32.6355 8.44979 33.5885 10.1004 33.5885 11.8868V24.1132C33.5885 25.8996 32.6355 27.5502 31.0885 28.4434L20.5 34.5566C18.953 35.4498 17.047 35.4498 15.5 34.5566L4.91154 28.4434C3.36454 27.5502 2.41154 25.8996 2.41154 24.1132V11.8868C2.41154 10.1004 3.36454 8.44979 4.91154 7.55662L15.5 1.44338Z" fill="#156963"/>
<path d="M16.3173 22.108C15.9653 22.108 15.6933 22.012 15.5013 21.82C15.3093 21.62 15.2133 21.344 15.2133 20.992V14.656C15.2133 14.296 15.3093 14.02 15.5013 13.828C15.7013 13.636 15.9773 13.54 16.3293 13.54H19.2813C20.2413 13.54 20.9813 13.788 21.5013 14.284C22.0293 14.772 22.2933 15.448 22.2933 16.312C22.2933 17.176 22.0293 17.856 21.5013 18.352C20.9813 18.84 20.2413 19.084 19.2813 19.084H17.4213V20.992C17.4213 21.344 17.3293 21.62 17.1453 21.82C16.9613 22.012 16.6853 22.108 16.3173 22.108ZM17.4213 17.392H18.8973C19.3133 17.392 19.6333 17.304 19.8573 17.128C20.0813 16.944 20.1933 16.672 20.1933 16.312C20.1933 15.944 20.0813 15.672 19.8573 15.496C19.6333 15.32 19.3133 15.232 18.8973 15.232H17.4213V17.392Z" fill="white"/>
</svg>
