<svg width="22" height="19" viewBox="0 0 22 19" fill="none" xmlns="http://www.w3.org/2000/svg">
<path d="M1.33332 10.6667H17.1466L12.3066 16.48C12.0803 16.7523 11.9714 17.1033 12.004 17.4559C12.0365 17.8085 12.2077 18.1337 12.48 18.36C12.7523 18.5863 13.1033 18.6952 13.4559 18.6627C13.8084 18.6302 14.1337 18.459 14.36 18.1867L21.0266 10.1867C21.0715 10.123 21.1116 10.0562 21.1466 9.98667C21.1466 9.92 21.1466 9.88 21.24 9.81333C21.3004 9.66045 21.3321 9.49772 21.3333 9.33333C21.3321 9.16895 21.3004 9.00621 21.24 8.85333C21.24 8.78667 21.24 8.74667 21.1466 8.68C21.1116 8.61048 21.0715 8.54363 21.0266 8.48L14.36 0.480001C14.2346 0.329491 14.0776 0.20845 13.9002 0.125488C13.7227 0.0425262 13.5292 -0.000318527 13.3333 0C13.0218 -0.000608444 12.7199 0.107891 12.48 0.306665C12.345 0.418598 12.2334 0.556067 12.1516 0.711197C12.0698 0.866325 12.0194 1.03607 12.0033 1.2107C11.9872 1.38534 12.0057 1.56144 12.0577 1.72891C12.1098 1.89638 12.1944 2.05194 12.3066 2.18667L17.1466 8H1.33332C0.979694 8 0.640554 8.14048 0.390507 8.39052C0.140457 8.64057 -1.71661e-05 8.97971 -1.71661e-05 9.33333C-1.71661e-05 9.68695 0.140457 10.0261 0.390507 10.2761C0.640554 10.5262 0.979694 10.6667 1.33332 10.6667Z" fill="#F2F2F2"/>
</svg>
